<svg width="1000" height="1000" viewBox="0 0 1000 1000" fill="none" xmlns="http://www.w3.org/2000/svg">
<rect width="1000" height="1000" fill="#1F1F1F"/>
<path d="M62.0969 950H47.4016V908.545H62.2183C66.3881 908.545 69.9776 909.375 72.9868 911.035C75.996 912.681 78.3103 915.05 79.9296 918.14C81.5624 921.23 82.3788 924.928 82.3788 929.232C82.3788 933.55 81.5624 937.261 79.9296 940.365C78.3103 943.469 75.9825 945.85 72.9463 947.51C69.9236 949.17 66.3071 950 62.0969 950ZM56.1661 942.49H61.7325C64.3234 942.49 66.5028 942.032 68.2705 941.114C70.0518 940.183 71.3877 938.746 72.2783 936.803C73.1825 934.846 73.6345 932.322 73.6345 929.232C73.6345 926.169 73.1825 923.666 72.2783 921.723C71.3877 919.779 70.0585 918.349 68.2908 917.431C66.523 916.514 64.3437 916.055 61.7528 916.055H56.1661V942.49ZM85.4513 950V908.545H102.049C105.099 908.545 107.643 908.998 109.68 909.902C111.718 910.806 113.25 912.061 114.275 913.667C115.301 915.259 115.814 917.094 115.814 919.172C115.814 920.792 115.49 922.215 114.842 923.443C114.194 924.658 113.304 925.656 112.17 926.439C111.05 927.208 109.768 927.755 108.324 928.078V928.483C109.903 928.551 111.381 928.996 112.757 929.819C114.147 930.642 115.274 931.796 116.137 933.281C117.001 934.751 117.433 936.506 117.433 938.543C117.433 940.743 116.886 942.706 115.793 944.434C114.714 946.147 113.115 947.504 110.996 948.502C108.877 949.501 106.266 950 103.163 950H85.4513ZM94.2159 942.835H101.361C103.804 942.835 105.585 942.369 106.705 941.438C107.825 940.493 108.385 939.238 108.385 937.673C108.385 936.526 108.108 935.514 107.555 934.637C107.002 933.76 106.212 933.071 105.187 932.572C104.175 932.073 102.967 931.823 101.564 931.823H94.2159V942.835ZM94.2159 925.892H100.713C101.914 925.892 102.98 925.683 103.912 925.265C104.856 924.833 105.598 924.226 106.138 923.443C106.691 922.661 106.968 921.723 106.968 920.63C106.968 919.132 106.435 917.924 105.369 917.006C104.316 916.089 102.818 915.63 100.875 915.63H94.2159V925.892ZM119.716 950V908.545H128.48V942.774H146.252V950H119.716ZM185.117 929.273C185.117 933.793 184.26 937.639 182.546 940.81C180.846 943.982 178.525 946.404 175.583 948.077C172.655 949.737 169.362 950.567 165.705 950.567C162.021 950.567 158.715 949.73 155.787 948.057C152.859 946.384 150.544 943.961 148.844 940.79C147.144 937.619 146.294 933.78 146.294 929.273C146.294 924.752 147.144 920.906 148.844 917.735C150.544 914.564 152.859 912.148 155.787 910.489C158.715 908.815 162.021 907.979 165.705 907.979C169.362 907.979 172.655 908.815 175.583 910.489C178.525 912.148 180.846 914.564 182.546 917.735C184.26 920.906 185.117 924.752 185.117 929.273ZM176.231 929.273C176.231 926.344 175.792 923.875 174.915 921.864C174.052 919.854 172.83 918.329 171.251 917.29C169.673 916.251 167.824 915.731 165.705 915.731C163.587 915.731 161.738 916.251 160.159 917.29C158.58 918.329 157.352 919.854 156.475 921.864C155.612 923.875 155.18 926.344 155.18 929.273C155.18 932.201 155.612 934.67 156.475 936.681C157.352 938.692 158.58 940.217 160.159 941.256C161.738 942.295 163.587 942.814 165.705 942.814C167.824 942.814 169.673 942.295 171.251 941.256C172.83 940.217 174.052 938.692 174.915 936.681C175.792 934.67 176.231 932.201 176.231 929.273ZM224.766 923.059H215.9C215.738 921.912 215.407 920.893 214.908 920.002C214.409 919.098 213.768 918.329 212.985 917.695C212.202 917.06 211.298 916.575 210.273 916.237C209.261 915.9 208.161 915.731 206.973 915.731C204.828 915.731 202.959 916.264 201.367 917.33C199.774 918.383 198.539 919.921 197.662 921.945C196.785 923.956 196.347 926.398 196.347 929.273C196.347 932.228 196.785 934.711 197.662 936.722C198.553 938.732 199.794 940.25 201.387 941.276C202.979 942.301 204.821 942.814 206.913 942.814C208.087 942.814 209.173 942.659 210.172 942.349C211.184 942.038 212.081 941.586 212.864 940.993C213.646 940.385 214.294 939.65 214.807 938.786C215.333 937.923 215.698 936.937 215.9 935.831L224.766 935.871C224.536 937.774 223.963 939.609 223.045 941.377C222.141 943.131 220.92 944.703 219.381 946.093C217.857 947.47 216.035 948.563 213.916 949.373C211.811 950.169 209.429 950.567 206.771 950.567C203.074 950.567 199.767 949.73 196.853 948.057C193.951 946.384 191.657 943.961 189.971 940.79C188.297 937.619 187.461 933.78 187.461 929.273C187.461 924.752 188.311 920.906 190.011 917.735C191.711 914.564 194.019 912.148 196.934 910.489C199.848 908.815 203.128 907.979 206.771 907.979C209.173 907.979 211.4 908.316 213.451 908.991C215.515 909.665 217.344 910.651 218.936 911.946C220.528 913.228 221.824 914.8 222.823 916.662C223.835 918.525 224.482 920.657 224.766 923.059ZM227.631 950V908.545H236.395V926.824H236.942L251.86 908.545H262.365L246.982 927.107L262.547 950H252.062L240.707 932.957L236.395 938.219V950H227.631ZM307.522 950H292.827V908.545H307.643C311.813 908.545 315.403 909.375 318.412 911.035C321.421 912.681 323.735 915.05 325.355 918.14C326.988 921.23 327.804 924.928 327.804 929.232C327.804 933.55 326.988 937.261 325.355 940.365C323.735 943.469 321.408 945.85 318.371 947.51C315.349 949.17 311.732 950 307.522 950ZM301.591 942.49H307.158C309.749 942.49 311.928 942.032 313.696 941.114C315.477 940.183 316.813 938.746 317.703 936.803C318.608 934.846 319.06 932.322 319.06 929.232C319.06 926.169 318.608 923.666 317.703 921.723C316.813 919.779 315.484 918.349 313.716 917.431C311.948 916.514 309.769 916.055 307.178 916.055H301.591V942.49ZM330.876 950V908.545H358.81V915.772H339.641V925.65H357.372V932.876H339.641V942.774H358.891V950H330.876ZM369.847 908.545L379.867 940.041H380.251L390.291 908.545H400.007L385.716 950H374.422L360.111 908.545H369.847ZM401.576 950V908.545H429.51V915.772H410.341V925.65H428.072V932.876H410.341V942.774H429.591V950H401.576ZM433.058 950V908.545H441.822V942.774H459.594V950H433.058ZM498.459 929.273C498.459 933.793 497.602 937.639 495.888 940.81C494.188 943.982 491.867 946.404 488.925 948.077C485.997 949.737 482.704 950.567 479.047 950.567C475.363 950.567 472.057 949.73 469.129 948.057C466.201 946.384 463.886 943.961 462.186 940.79C460.486 937.619 459.636 933.78 459.636 929.273C459.636 924.752 460.486 920.906 462.186 917.735C463.886 914.564 466.201 912.148 469.129 910.489C472.057 908.815 475.363 907.979 479.047 907.979C482.704 907.979 485.997 908.815 488.925 910.489C491.867 912.148 494.188 914.564 495.888 917.735C497.602 920.906 498.459 924.752 498.459 929.273ZM489.573 929.273C489.573 926.344 489.134 923.875 488.257 921.864C487.393 919.854 486.172 918.329 484.593 917.29C483.015 916.251 481.166 915.731 479.047 915.731C476.929 915.731 475.08 916.251 473.501 917.29C471.922 918.329 470.694 919.854 469.817 921.864C468.953 923.875 468.522 926.344 468.522 929.273C468.522 932.201 468.953 934.67 469.817 936.681C470.694 938.692 471.922 940.217 473.501 941.256C475.08 942.295 476.929 942.814 479.047 942.814C481.166 942.814 483.015 942.295 484.593 941.256C486.172 940.217 487.393 938.692 488.257 936.681C489.134 934.67 489.573 932.201 489.573 929.273ZM501.531 950V908.545H517.886C521.031 908.545 523.709 909.146 525.922 910.347C528.135 911.534 529.822 913.187 530.983 915.306C532.157 917.411 532.744 919.84 532.744 922.593C532.744 925.346 532.15 927.775 530.962 929.88C529.775 931.985 528.054 933.625 525.801 934.799C523.561 935.973 520.848 936.56 517.664 936.56H507.239V929.536H516.247C517.934 929.536 519.324 929.246 520.417 928.665C521.523 928.072 522.346 927.255 522.886 926.216C523.439 925.164 523.716 923.956 523.716 922.593C523.716 921.217 523.439 920.016 522.886 918.99C522.346 917.951 521.523 917.148 520.417 916.581C519.31 916.001 517.907 915.711 516.206 915.711H510.296V950H501.531ZM535.017 908.545H545.826L557.242 936.398H557.727L569.144 908.545H579.953V950H571.451V923.018H571.107L560.379 949.798H554.59L543.862 922.917H543.518V950H535.017V908.545ZM583.754 950V908.545H611.687V915.772H592.518V925.65H610.25V932.876H592.518V942.774H611.768V950H583.754ZM649.909 908.545V950H642.338L624.303 923.909H624V950H615.235V908.545H622.927L640.82 934.616H641.185V908.545H649.909ZM652.151 915.772V908.545H686.198V915.772H673.506V950H664.843V915.772H652.151Z" fill="#B5812B"/>
<path d="M47 771.432H572.229C784.958 751.194 865.234 244.051 509.729 244.051H194" stroke="#F93131" stroke-width="100"/>
<path d="M914.445 433V236.531C913.681 169.804 880.178 84.0537 716.842 83H47" stroke="#F93131" stroke-width="65"/>
<path d="M915.078 563L915.078 764.156C914.311 830.857 880.674 916.574 716.683 917.627H697.5" stroke="#F93131" stroke-width="65"/>
<rect x="112" y="113" width="617" height="65" transform="rotate(90 112 113)" fill="#F93131"/>
<rect x="324" y="288" width="334" height="130" transform="rotate(90 324 288)" fill="#F93131"/>
</svg>
